# xmcd CD database file
#
# Track frame offsets:
#	150
#	19923
#	42775
#	66385
#	93625
#	108453
#	126163
#	150200
#	168938
#	187373
#	197255
#	212968
#	228105
#	241465
#
# Disc length: 3423 seconds
#
# Revision: 0
# Processed by: cddbd v1.5.2PL0 Copyright (c) Steve Scherf et al.
# Submitted via: CDex 1.77
#
DISCID=bd0d5d0e
DTITLE=Helen Merrill - The great jazz artist series
DYEAR=1900
DGENRE=Jazz
TTITLE0=You'd be nice to come home to
TTITLE1=What's new
TTITLE2=Don't explain
TTITLE3=Yesterdays
TTITLE4=S'wonderful
TTITLE5=Falling in love with love
TTITLE6=Born to be blue
TTITLE7=I'm a fool to want you
TTITLE8=The nearess of you
TTITLE9=I remember you
TTITLE10=Summer time
TTITLE11=Softly as in a morning sunrise
TTITLE12=Bye, bye blackbird
TTITLE13=You've got a date with the blues
EXTD=
EXTT0=
EXTT1=
EXTT2=
EXTT3=
EXTT4=
EXTT5=
EXTT6=
EXTT7=
EXTT8=
EXTT9=
EXTT10=
EXTT11=
EXTT12=
EXTT13=
PLAYORDER=
